# xmcd
#
# Track frame offsets: 
#        150
#        11495
#        22760
#        32067
#        42420
#        52467
#        63195
#        72375
#        88665
#        99612
#        110062
#        122100
#
# Disc length: 1769 seconds
#
# Revision: 2
# Processed by: cddbd v1.5.2PL0 Copyright (c) Steve Scherf et al.
# Submitted via: ExactAudioCopy v0.95b4
#
DISCID=a506e70c
DTITLE=Merle Travis and Joe Maphis - Country Music's Two Guitar Greats
DYEAR=1964
DGENRE=Country Boogie
TTITLE0=Corrine Corrina
TTITLE1=Big Midnight Special
TTITLE2=Bayou Baby
TTITLE3=Don't Let Your Deal Go Down
TTITLE4=Guitar Rag
TTITLE5=Blast Off
TTITLE6=When It's Time for the Whippoorwill to Sing
TTITLE7=West Coast Blues
TTITLE8=Mainstreet Breakdown
TTITLE9=Picture on the Wall
TTITLE10=Kentucky Waltz
TTITLE11=Gonna Lay Down My Old Guitar
EXTD=Merle Robert Travis (1917/1983): guitar\nOtis William "Joe" Maphi
EXTD=s (1921/1986): double-neck Mosrite guitar\nProduced by Ken Nelson
EXTD=\nOriginally issued as Capitol LP T/ST 2012 (1964).\nMastered by
EXTD=Bob Irwin at Sundazed Studios, Coxsackie US-NY.\nCD: EMI/Sundaze
EXTD=d SC 9011 (2005-03-22), UPC 090771901125.
EXTT0=(trad. - arr. Merle Travis)
EXTT1=(trad.)
EXTT2=(Merle Travis)
EXTT3=(trad. - arr. Merle Travis)
EXTT4=(Merle Travis)
EXTT5=(Merle Travis/Joe Maphis)
EXTT6=(Alton Delmore)
EXTT7=(Merle Travis)
EXTT8=(Chet Atkins)
EXTT9=(trad.)
EXTT10=(Bill Monroe)
EXTT11=(Alton Delmore)
PLAYORDER=
